<svg xmlns="http://www.w3.org/2000/svg" xmlns:xlink="http://www.w3.org/1999/xlink" width="550" zoomAndPan="magnify" viewBox="0 0 412.5 412.499996" height="550" preserveAspectRatio="xMidYMid meet" version="1.0"><defs><g/><clipPath id="eced30b7df"><path d="M 114.6875 144.199219 L 297.3125 144.199219 L 297.3125 267.800781 L 114.6875 267.800781 Z M 114.6875 144.199219 " clip-rule="nonzero"/></clipPath></defs><path fill="#ffffff" d="M 0 0 L 412 0 L 412 412 L 0 412 Z M 0 0 " fill-opacity="1" fill-rule="nonzero"/><path fill="#ffffff" d="M 0 0 L 412 0 L 412 412 L 0 412 Z M 0 0 " fill-opacity="1" fill-rule="nonzero"/><g clip-path="url(#eced30b7df)"><path fill="#ffffff" d="M 114.6875 144.199219 L 297.191406 144.199219 L 297.191406 267.800781 L 114.6875 267.800781 Z M 114.6875 144.199219 " fill-opacity="1" fill-rule="nonzero"/></g><g fill="#000000" fill-opacity="1"><g transform="translate(135.018094, 212.367584)"><g><path d="M 13.296875 -4.953125 C 13.109375 -3.304688 12.5 -2.03125 11.46875 -1.125 C 10.445312 -0.226562 9.082031 0.21875 7.375 0.21875 C 5.53125 0.21875 4.050781 -0.441406 2.9375 -1.765625 C 1.832031 -3.085938 1.28125 -4.859375 1.28125 -7.078125 L 1.28125 -8.578125 C 1.28125 -10.035156 1.535156 -11.3125 2.046875 -12.40625 C 2.566406 -13.507812 3.300781 -14.351562 4.25 -14.9375 C 5.207031 -15.53125 6.3125 -15.828125 7.5625 -15.828125 C 9.21875 -15.828125 10.546875 -15.363281 11.546875 -14.4375 C 12.546875 -13.507812 13.128906 -12.226562 13.296875 -10.59375 L 11.234375 -10.59375 C 11.054688 -11.84375 10.664062 -12.742188 10.0625 -13.296875 C 9.46875 -13.859375 8.632812 -14.140625 7.5625 -14.140625 C 6.25 -14.140625 5.21875 -13.648438 4.46875 -12.671875 C 3.71875 -11.703125 3.34375 -10.320312 3.34375 -8.53125 L 3.34375 -7.015625 C 3.34375 -5.316406 3.695312 -3.96875 4.40625 -2.96875 C 5.113281 -1.96875 6.101562 -1.46875 7.375 -1.46875 C 8.519531 -1.46875 9.398438 -1.726562 10.015625 -2.25 C 10.628906 -2.769531 11.035156 -3.671875 11.234375 -4.953125 Z M 13.296875 -4.953125 "/></g></g></g><g fill="#000000" fill-opacity="1"><g transform="translate(149.31756, 212.367584)"><g><path d="M 3.484375 -10.203125 C 4.367188 -11.285156 5.515625 -11.828125 6.921875 -11.828125 C 9.367188 -11.828125 10.601562 -10.441406 10.625 -7.671875 L 10.625 0 L 8.640625 0 L 8.640625 -7.6875 C 8.640625 -8.519531 8.453125 -9.132812 8.078125 -9.53125 C 7.703125 -9.9375 7.113281 -10.140625 6.3125 -10.140625 C 5.675781 -10.140625 5.113281 -9.96875 4.625 -9.625 C 4.132812 -9.28125 3.753906 -8.828125 3.484375 -8.265625 L 3.484375 0 L 1.5 0 L 1.5 -16.484375 L 3.484375 -16.484375 Z M 3.484375 -10.203125 "/></g></g></g><g fill="#000000" fill-opacity="1"><g transform="translate(161.417929, 212.367584)"><g><path d="M 13.890625 -12.53125 C 13.890625 -11.238281 13.625 -10.328125 13.09375 -9.796875 C 12.570312 -9.273438 11.738281 -9.003906 10.59375 -8.984375 L 10.59375 0 L 8.703125 0 L 8.671875 -1.140625 C 7.898438 -0.234375 6.765625 0.21875 5.265625 0.21875 C 4.023438 0.21875 3.082031 -0.140625 2.4375 -0.859375 C 1.789062 -1.578125 1.460938 -2.644531 1.453125 -4.0625 L 1.453125 -11.609375 L 3.4375 -11.609375 L 3.4375 -4.109375 C 3.4375 -2.347656 4.15625 -1.46875 5.59375 -1.46875 C 7.101562 -1.46875 8.109375 -2.035156 8.609375 -3.171875 L 8.609375 -11.609375 L 10.59375 -11.609375 L 10.59375 -10.203125 C 11.082031 -10.210938 11.445312 -10.28125 11.6875 -10.40625 C 11.9375 -10.53125 12.113281 -10.722656 12.21875 -10.984375 C 12.320312 -11.242188 12.375 -11.757812 12.375 -12.53125 Z M 13.890625 -12.53125 "/></g></g></g><g fill="#000000" fill-opacity="1"><g transform="translate(175.009394, 212.367584)"><g><path d="M 8.671875 0 C 8.554688 -0.226562 8.460938 -0.632812 8.390625 -1.21875 C 7.460938 -0.257812 6.359375 0.21875 5.078125 0.21875 C 3.941406 0.21875 3.003906 -0.101562 2.265625 -0.75 C 1.535156 -1.40625 1.171875 -2.226562 1.171875 -3.21875 C 1.171875 -4.425781 1.628906 -5.363281 2.546875 -6.03125 C 3.460938 -6.695312 4.753906 -7.03125 6.421875 -7.03125 L 8.359375 -7.03125 L 8.359375 -7.953125 C 8.359375 -8.640625 8.148438 -9.1875 7.734375 -9.59375 C 7.316406 -10.007812 6.707031 -10.21875 5.90625 -10.21875 C 5.195312 -10.21875 4.601562 -10.039062 4.125 -9.6875 C 3.644531 -9.332031 3.40625 -8.898438 3.40625 -8.390625 L 1.40625 -8.390625 C 1.40625 -8.960938 1.609375 -9.519531 2.015625 -10.0625 C 2.429688 -10.601562 2.988281 -11.03125 3.6875 -11.34375 C 4.394531 -11.664062 5.171875 -11.828125 6.015625 -11.828125 C 7.359375 -11.828125 8.40625 -11.488281 9.15625 -10.8125 C 9.914062 -10.144531 10.3125 -9.226562 10.34375 -8.0625 L 10.34375 -2.71875 C 10.34375 -1.644531 10.476562 -0.796875 10.75 -0.171875 L 10.75 0 Z M 5.375 -1.515625 C 6 -1.515625 6.585938 -1.675781 7.140625 -2 C 7.703125 -2.320312 8.109375 -2.738281 8.359375 -3.25 L 8.359375 -5.625 L 6.796875 -5.625 C 4.367188 -5.625 3.15625 -4.914062 3.15625 -3.5 C 3.15625 -2.875 3.359375 -2.382812 3.765625 -2.03125 C 4.179688 -1.6875 4.71875 -1.515625 5.375 -1.515625 Z M 5.375 -1.515625 "/></g></g></g><g fill="#000000" fill-opacity="1"><g transform="translate(186.959581, 212.367584)"><g/></g></g><g fill="#000000" fill-opacity="1"><g transform="translate(192.398316, 212.367584)"><g><path d="M 6.15625 -1.40625 C 6.863281 -1.40625 7.484375 -1.617188 8.015625 -2.046875 C 8.546875 -2.472656 8.835938 -3.007812 8.890625 -3.65625 L 10.765625 -3.65625 C 10.734375 -2.988281 10.503906 -2.351562 10.078125 -1.75 C 9.660156 -1.15625 9.097656 -0.675781 8.390625 -0.3125 C 7.691406 0.0390625 6.945312 0.21875 6.15625 0.21875 C 4.570312 0.21875 3.3125 -0.304688 2.375 -1.359375 C 1.445312 -2.421875 0.984375 -3.867188 0.984375 -5.703125 L 0.984375 -6.03125 C 0.984375 -7.15625 1.191406 -8.15625 1.609375 -9.03125 C 2.023438 -9.914062 2.617188 -10.601562 3.390625 -11.09375 C 4.171875 -11.582031 5.085938 -11.828125 6.140625 -11.828125 C 7.441406 -11.828125 8.523438 -11.4375 9.390625 -10.65625 C 10.253906 -9.875 10.710938 -8.859375 10.765625 -7.609375 L 8.890625 -7.609375 C 8.835938 -8.367188 8.550781 -8.988281 8.03125 -9.46875 C 7.519531 -9.945312 6.890625 -10.1875 6.140625 -10.1875 C 5.140625 -10.1875 4.359375 -9.820312 3.796875 -9.09375 C 3.242188 -8.375 2.96875 -7.328125 2.96875 -5.953125 L 2.96875 -5.578125 C 2.96875 -4.242188 3.242188 -3.210938 3.796875 -2.484375 C 4.347656 -1.765625 5.132812 -1.40625 6.15625 -1.40625 Z M 6.15625 -1.40625 "/></g></g></g><g fill="#000000" fill-opacity="1"><g transform="translate(203.897956, 212.367584)"><g><path d="M 8.671875 0 C 8.554688 -0.226562 8.460938 -0.632812 8.390625 -1.21875 C 7.460938 -0.257812 6.359375 0.21875 5.078125 0.21875 C 3.941406 0.21875 3.003906 -0.101562 2.265625 -0.75 C 1.535156 -1.40625 1.171875 -2.226562 1.171875 -3.21875 C 1.171875 -4.425781 1.628906 -5.363281 2.546875 -6.03125 C 3.460938 -6.695312 4.753906 -7.03125 6.421875 -7.03125 L 8.359375 -7.03125 L 8.359375 -7.953125 C 8.359375 -8.640625 8.148438 -9.1875 7.734375 -9.59375 C 7.316406 -10.007812 6.707031 -10.21875 5.90625 -10.21875 C 5.195312 -10.21875 4.601562 -10.039062 4.125 -9.6875 C 3.644531 -9.332031 3.40625 -8.898438 3.40625 -8.390625 L 1.40625 -8.390625 C 1.40625 -8.960938 1.609375 -9.519531 2.015625 -10.0625 C 2.429688 -10.601562 2.988281 -11.03125 3.6875 -11.34375 C 4.394531 -11.664062 5.171875 -11.828125 6.015625 -11.828125 C 7.359375 -11.828125 8.40625 -11.488281 9.15625 -10.8125 C 9.914062 -10.144531 10.3125 -9.226562 10.34375 -8.0625 L 10.34375 -2.71875 C 10.34375 -1.644531 10.476562 -0.796875 10.75 -0.171875 L 10.75 0 Z M 5.375 -1.515625 C 6 -1.515625 6.585938 -1.675781 7.140625 -2 C 7.703125 -2.320312 8.109375 -2.738281 8.359375 -3.25 L 8.359375 -5.625 L 6.796875 -5.625 C 4.367188 -5.625 3.15625 -4.914062 3.15625 -3.5 C 3.15625 -2.875 3.359375 -2.382812 3.765625 -2.03125 C 4.179688 -1.6875 4.71875 -1.515625 5.375 -1.515625 Z M 9.484375 -13.53125 L 9.484375 -13.4375 L 7.84375 -13.4375 L 6.234375 -15.25 L 4.640625 -13.4375 L 3 -13.4375 L 3 -13.5625 L 5.640625 -16.484375 L 6.84375 -16.484375 Z M 4.140625 2.625 C 4.140625 2.300781 4.238281 2.03125 4.4375 1.8125 C 4.632812 1.59375 4.925781 1.484375 5.3125 1.484375 C 5.695312 1.484375 5.988281 1.59375 6.1875 1.8125 C 6.394531 2.03125 6.5 2.300781 6.5 2.625 C 6.5 2.945312 6.394531 3.210938 6.1875 3.421875 C 5.988281 3.640625 5.695312 3.75 5.3125 3.75 C 4.925781 3.75 4.632812 3.640625 4.4375 3.421875 C 4.238281 3.210938 4.140625 2.945312 4.140625 2.625 Z M 4.140625 2.625 "/></g></g></g><g fill="#000000" fill-opacity="1"><g transform="translate(215.848143, 212.367584)"><g><path d="M 11.3125 -5.671875 C 11.3125 -3.910156 10.90625 -2.488281 10.09375 -1.40625 C 9.28125 -0.320312 8.1875 0.21875 6.8125 0.21875 C 5.40625 0.21875 4.296875 -0.226562 3.484375 -1.125 L 3.484375 4.46875 L 1.5 4.46875 L 1.5 -11.609375 L 3.3125 -11.609375 L 3.40625 -10.3125 C 4.21875 -11.320312 5.34375 -11.828125 6.78125 -11.828125 C 8.175781 -11.828125 9.28125 -11.300781 10.09375 -10.25 C 10.90625 -9.195312 11.3125 -7.734375 11.3125 -5.859375 Z M 9.328125 -5.90625 C 9.328125 -7.207031 9.046875 -8.238281 8.484375 -9 C 7.921875 -9.757812 7.15625 -10.140625 6.1875 -10.140625 C 4.988281 -10.140625 4.085938 -9.601562 3.484375 -8.53125 L 3.484375 -3 C 4.078125 -1.9375 4.984375 -1.40625 6.203125 -1.40625 C 7.160156 -1.40625 7.921875 -1.78125 8.484375 -2.53125 C 9.046875 -3.289062 9.328125 -4.414062 9.328125 -5.90625 Z M 9.328125 -5.90625 "/></g></g></g><g fill="#000000" fill-opacity="1"><g transform="translate(228.17379, 212.367584)"><g/></g></g><g fill="#000000" fill-opacity="1"><g transform="translate(233.612525, 212.367584)"><g><path d="M 3.375 -11.609375 L 3.4375 -10.140625 C 4.332031 -11.265625 5.492188 -11.828125 6.921875 -11.828125 C 9.367188 -11.828125 10.601562 -10.441406 10.625 -7.671875 L 10.625 0 L 8.640625 0 L 8.640625 -7.6875 C 8.640625 -8.519531 8.453125 -9.132812 8.078125 -9.53125 C 7.703125 -9.9375 7.113281 -10.140625 6.3125 -10.140625 C 5.675781 -10.140625 5.113281 -9.96875 4.625 -9.625 C 4.132812 -9.28125 3.753906 -8.828125 3.484375 -8.265625 L 3.484375 0 L 1.5 0 L 1.5 -11.609375 Z M 3.375 -11.609375 "/></g></g></g><g fill="#000000" fill-opacity="1"><g transform="translate(245.734347, 212.367584)"><g><path d="M 3.484375 -10.203125 C 4.367188 -11.285156 5.515625 -11.828125 6.921875 -11.828125 C 9.367188 -11.828125 10.601562 -10.441406 10.625 -7.671875 L 10.625 0 L 8.640625 0 L 8.640625 -7.6875 C 8.640625 -8.519531 8.453125 -9.132812 8.078125 -9.53125 C 7.703125 -9.9375 7.113281 -10.140625 6.3125 -10.140625 C 5.675781 -10.140625 5.113281 -9.96875 4.625 -9.625 C 4.132812 -9.28125 3.753906 -8.828125 3.484375 -8.265625 L 3.484375 0 L 1.5 0 L 1.5 -16.484375 L 3.484375 -16.484375 Z M 3.484375 -10.203125 "/></g></g></g><g fill="#000000" fill-opacity="1"><g transform="translate(257.834716, 212.367584)"><g><path d="M 8.671875 0 C 8.554688 -0.226562 8.460938 -0.632812 8.390625 -1.21875 C 7.460938 -0.257812 6.359375 0.21875 5.078125 0.21875 C 3.941406 0.21875 3.003906 -0.101562 2.265625 -0.75 C 1.535156 -1.40625 1.171875 -2.226562 1.171875 -3.21875 C 1.171875 -4.425781 1.628906 -5.363281 2.546875 -6.03125 C 3.460938 -6.695312 4.753906 -7.03125 6.421875 -7.03125 L 8.359375 -7.03125 L 8.359375 -7.953125 C 8.359375 -8.640625 8.148438 -9.1875 7.734375 -9.59375 C 7.316406 -10.007812 6.707031 -10.21875 5.90625 -10.21875 C 5.195312 -10.21875 4.601562 -10.039062 4.125 -9.6875 C 3.644531 -9.332031 3.40625 -8.898438 3.40625 -8.390625 L 1.40625 -8.390625 C 1.40625 -8.960938 1.609375 -9.519531 2.015625 -10.0625 C 2.429688 -10.601562 2.988281 -11.03125 3.6875 -11.34375 C 4.394531 -11.664062 5.171875 -11.828125 6.015625 -11.828125 C 7.359375 -11.828125 8.40625 -11.488281 9.15625 -10.8125 C 9.914062 -10.144531 10.3125 -9.226562 10.34375 -8.0625 L 10.34375 -2.71875 C 10.34375 -1.644531 10.476562 -0.796875 10.75 -0.171875 L 10.75 0 Z M 5.375 -1.515625 C 6 -1.515625 6.585938 -1.675781 7.140625 -2 C 7.703125 -2.320312 8.109375 -2.738281 8.359375 -3.25 L 8.359375 -5.625 L 6.796875 -5.625 C 4.367188 -5.625 3.15625 -4.914062 3.15625 -3.5 C 3.15625 -2.875 3.359375 -2.382812 3.765625 -2.03125 C 4.179688 -1.6875 4.71875 -1.515625 5.375 -1.515625 Z M 9.484375 -13.53125 L 9.484375 -13.4375 L 7.84375 -13.4375 L 6.234375 -15.25 L 4.640625 -13.4375 L 3 -13.4375 L 3 -13.5625 L 5.640625 -16.484375 L 6.84375 -16.484375 Z M 4.140625 2.625 C 4.140625 2.300781 4.238281 2.03125 4.4375 1.8125 C 4.632812 1.59375 4.925781 1.484375 5.3125 1.484375 C 5.695312 1.484375 5.988281 1.59375 6.1875 1.8125 C 6.394531 2.03125 6.5 2.300781 6.5 2.625 C 6.5 2.945312 6.394531 3.210938 6.1875 3.421875 C 5.988281 3.640625 5.695312 3.75 5.3125 3.75 C 4.925781 3.75 4.632812 3.640625 4.4375 3.421875 C 4.238281 3.210938 4.140625 2.945312 4.140625 2.625 Z M 4.140625 2.625 "/></g></g></g><g fill="#000000" fill-opacity="1"><g transform="translate(269.784902, 212.367584)"><g><path d="M 4.1875 -14.421875 L 4.1875 -11.609375 L 6.359375 -11.609375 L 6.359375 -10.078125 L 4.1875 -10.078125 L 4.1875 -2.875 C 4.1875 -2.40625 4.285156 -2.054688 4.484375 -1.828125 C 4.679688 -1.597656 5.007812 -1.484375 5.46875 -1.484375 C 5.695312 -1.484375 6.015625 -1.523438 6.421875 -1.609375 L 6.421875 0 C 5.890625 0.144531 5.378906 0.21875 4.890625 0.21875 C 4.003906 0.21875 3.332031 -0.046875 2.875 -0.578125 C 2.425781 -1.117188 2.203125 -1.882812 2.203125 -2.875 L 2.203125 -10.078125 L 0.09375 -10.078125 L 0.09375 -11.609375 L 2.203125 -11.609375 L 2.203125 -14.421875 Z M 4.1875 -14.421875 "/></g></g></g></svg>