<svg xmlns="http://www.w3.org/2000/svg" xmlns:xlink="http://www.w3.org/1999/xlink" width="550" zoomAndPan="magnify" viewBox="0 0 412.5 412.499996" height="550" preserveAspectRatio="xMidYMid meet" version="1.0"><defs><clipPath id="6634e81fc5"><path d="M 94.617188 148.21875 L 156.417969 148.21875 L 156.417969 219.433594 L 94.617188 219.433594 Z M 94.617188 148.21875 " clip-rule="nonzero"/></clipPath><clipPath id="e5f5c94af5"><path d="M 114.09375 148.21875 L 136.941406 148.21875 C 142.109375 148.21875 147.0625 150.269531 150.714844 153.921875 C 154.367188 157.574219 156.417969 162.527344 156.417969 167.695312 L 156.417969 199.921875 C 156.417969 205.089844 154.367188 210.042969 150.714844 213.695312 C 147.0625 217.347656 142.109375 219.398438 136.941406 219.398438 L 114.09375 219.398438 C 108.929688 219.398438 103.976562 217.347656 100.324219 213.695312 C 96.671875 210.042969 94.617188 205.089844 94.617188 199.921875 L 94.617188 167.695312 C 94.617188 162.527344 96.671875 157.574219 100.324219 153.921875 C 103.976562 150.269531 108.929688 148.21875 114.09375 148.21875 Z M 114.09375 148.21875 " clip-rule="nonzero"/></clipPath><clipPath id="2e6cbc9d28"><path d="M 65.359375 65.359375 L 346.269531 65.359375 L 346.269531 346.269531 L 65.359375 346.269531 Z M 65.359375 65.359375 " clip-rule="nonzero"/></clipPath></defs><path fill="#ffffff" d="M 0 0 L 412 0 L 412 412 L 0 412 Z M 0 0 " fill-opacity="1" fill-rule="nonzero"/><path fill="#ffffff" d="M 0 0 L 412 0 L 412 412 L 0 412 Z M 0 0 " fill-opacity="1" fill-rule="nonzero"/><g clip-path="url(#6634e81fc5)"><g clip-path="url(#e5f5c94af5)"><path fill="#cfcfcf" d="M 94.617188 148.21875 L 156.417969 148.21875 L 156.417969 219.433594 L 94.617188 219.433594 Z M 94.617188 148.21875 " fill-opacity="1" fill-rule="nonzero"/></g></g><g clip-path="url(#2e6cbc9d28)"><path fill="#dedede" d="M 335.21875 151.132812 C 328.140625 134.40625 318.019531 119.386719 305.128906 106.496094 C 292.238281 93.601562 277.222656 83.476562 260.492188 76.402344 C 243.160156 69.078125 224.761719 65.359375 205.8125 65.359375 C 186.863281 65.359375 168.464844 69.078125 151.132812 76.402344 C 134.40625 83.476562 119.386719 93.605469 106.496094 106.496094 C 93.605469 119.386719 83.484375 134.402344 76.410156 151.132812 C 69.078125 168.464844 65.359375 186.863281 65.359375 205.8125 C 65.359375 224.761719 69.078125 243.160156 76.402344 260.492188 C 83.476562 277.21875 93.605469 292.238281 106.492188 305.128906 C 119.386719 318.027344 134.402344 328.148438 151.128906 335.222656 C 168.464844 342.546875 186.863281 346.269531 205.8125 346.269531 C 224.761719 346.269531 243.160156 342.546875 260.492188 335.222656 C 277.21875 328.148438 292.238281 318.019531 305.128906 305.128906 C 318.027344 292.238281 328.140625 277.222656 335.21875 260.492188 C 342.546875 243.160156 346.269531 224.761719 346.269531 205.8125 C 346.269531 186.863281 342.546875 168.464844 335.21875 151.132812 Z M 165.445312 163.085938 C 168.65625 147.65625 180.769531 135.539062 196.207031 132.324219 C 225.214844 126.28125 250.363281 151.429688 244.320312 180.4375 C 241.105469 195.871094 228.992188 207.988281 213.5625 211.199219 C 184.546875 217.242188 159.398438 192.097656 165.445312 163.085938 Z M 209.085938 322.734375 C 208.5 322.757812 207.914062 322.769531 207.328125 322.773438 L 207.195312 322.773438 C 206.734375 322.785156 206.273438 322.785156 205.8125 322.785156 L 205.449219 322.785156 C 173.625 322.6875 144.785156 309.878906 123.757812 289.167969 C 131.289062 251.246094 164.75 222.667969 204.882812 222.667969 C 245.550781 222.667969 279.367188 252.023438 286.289062 290.703125 C 266.058594 309.890625 238.976562 321.914062 209.085938 322.734375 Z M 209.085938 322.734375 " fill-opacity="1" fill-rule="nonzero"/></g></svg>